<?xml version="1.0" encoding="UTF-8"?>
<svg width="16px" height="16px" viewBox="0 0 16 16" version="1.1" xmlns="http://www.w3.org/2000/svg" xmlns:xlink="http://www.w3.org/1999/xlink">
    <g id="iTools" stroke="none" stroke-width="1" fill="none" fill-rule="evenodd">
        <g id="Icon-Sheet" transform="translate(-136.000000, -93.000000)">
            <g id="Icon-Eraser" transform="translate(136.000000, 93.000000)">
                <rect id="Placeholder" x="0" y="0" width="16" height="16"></rect>
                <path d="M6,14 C6.6,14 7,14.4 7,15 C7,15.6 6.6,16 6,16 L6,16 L1,16 C0.4,16 0,15.6 0,15 C0,14.4 0.4,14 1,14 L1,14 Z M10,14 C10.6,14 11,14.4 11,15 C11,15.6 10.6,16 10,16 L9,16 C8.4,16 8,15.6 8,15 C8,14.4 8.4,14 9,14 L10,14 Z M15,14 C15.6,14 16,14.4 16,15 C16,15.6 15.6,16 15,16 L15,16 L13,16 C12.4,16 12,15.6 12,15 C12,14.4 12.4,14 13,14 L13,14 Z M3.0999,8.20002 L5.4999,10.6 C5.8999,11 5.8999,11.7 5.4999,12.2 L4.9999,12.7 C4.8999,12.9 4.5999,13 4.2999,13 L1.9999,13 C1.6999,13 1.3999,12.9 1.1999,12.7 L0.699902,12.2 C-0.200098,11.3 -0.200098,9.90002 0.699902,9.00002 L1.4999,8.20002 C1.8999,7.80002 2.6999,7.80002 3.0999,8.20002 Z M9.59981,0.3 L13.6998,4.3 C14.0998,4.7 14.0998,5.4 13.6998,5.9 L8.7998,10.7 C8.39981,11.1 7.5998,11.1 7.1998,10.7 L3.0998,6.7 C2.6998,6.3 2.6998,5.6 3.0998,5.1 L7.9998,0.3 C8.39981,-0.1 9.19981,-0.1 9.59981,0.3 Z" id="Shape" fill="#000000"></path>
            </g>
        </g>
    </g>
</svg>