<?xml version="1.0" encoding="UTF-8"?>
<svg width="16px" height="16px" viewBox="0 0 16 16" version="1.1" xmlns="http://www.w3.org/2000/svg" xmlns:xlink="http://www.w3.org/1999/xlink">
    <g id="iTools" stroke="none" stroke-width="1" fill="none" fill-rule="evenodd">
        <g id="Icon-Sheet" transform="translate(-304.000000, -93.000000)">
            <g id="Icon-Chevron-Up" transform="translate(304.000000, 93.000000)">
                <rect id="Placeholder" x="0" y="0" width="16" height="16"></rect>
                <path d="M8,3.5 C8.3147387,3.5 8.65554948,3.60133568 9.04739025,3.82056042 L9.26633241,3.95192852 L9.49629629,4.10727654 L9.73818193,4.28720145 C9.77953969,4.31927018 9.82143169,4.35238781 9.86387669,4.38656679 L10.1253326,4.60447635 L10.4009604,4.84845521 C10.4481294,4.89132396 10.4959264,4.9353038 10.5443701,4.98040718 L10.8429434,5.26460931 L11.1579388,5.57637315 L11.4902564,5.91629569 L11.8407961,6.28497388 L12.6001424,7.11098508 L13.2241796,7.81041701 L13.8983298,8.58059345 L15.1415263,10.0269031 C15.6789529,10.6573506 15.6035445,11.6040997 14.9730969,12.1415263 C14.3426494,12.6789529 13.3959003,12.6035445 12.8584737,11.9730969 L12.2445319,11.25687 L11.3858753,10.2704349 L10.8550936,9.67154749 L10.3577585,9.11975464 L9.67469608,8.38056633 L9.26143348,7.94690711 L8.88198241,7.56066017 L8.55517341,7.2399463 L8.26348202,6.96619182 C8.21785981,6.92451688 8.17375076,6.88482672 8.13117982,6.8471354 L8,6.733 L7.86882018,6.8471354 L7.59513687,7.09715693 C7.54651332,7.14278736 7.49640157,7.19038851 7.44482659,7.2399463 L7.11801759,7.56066017 L6.73856652,7.94690711 L6.32530392,8.38056633 L5.87833408,8.86154707 L5.39776129,9.38975857 L4.88368983,9.96511006 L4.33622399,10.5875108 L3.75546806,11.25687 L3.14152632,11.9730969 C2.60409973,12.6035445 1.65735064,12.6789529 1.02690306,12.1415263 C0.396455482,11.6040997 0.321047076,10.6573506 0.858473675,10.0269031 L2.10167022,8.58059345 L2.77582043,7.81041701 L3.39985759,7.11098508 L3.97681942,6.48028289 L4.33680777,6.09700302 L4.6781239,5.74277728 L5.00166787,5.4170087 L5.30833973,5.11910034 C5.3580957,5.07173746 5.40718617,5.02551056 5.45562989,4.98040718 L5.73868122,4.72316981 C5.78461294,4.68251081 5.82993541,4.64295047 5.87466739,4.60447635 L6.13612331,4.38656679 C6.17856831,4.35238781 6.22046031,4.31927018 6.26181807,4.28720145 L6.50370371,4.10727654 L6.73366759,3.95192852 L6.95260975,3.82056042 C7.34445052,3.60133568 7.6852613,3.5 8,3.5 Z" id="Path" fill="#000000"></path>
            </g>
        </g>
    </g>
</svg>