<?xml version="1.0" encoding="UTF-8"?>
<svg width="16px" height="16px" viewBox="0 0 16 16" version="1.1" xmlns="http://www.w3.org/2000/svg" xmlns:xlink="http://www.w3.org/1999/xlink">
    <title>8C2DC10E-5C8D-4156-A713-524F05109242</title>
    <g id="iTools" stroke="none" stroke-width="1" fill="none" fill-rule="evenodd">
        <g id="Icon-Sheet" transform="translate(-696.000000, -93.000000)">
            <g id="Icon-Add" transform="translate(696.000000, 93.000000)">
                <rect id="Placeholder" x="0" y="0" width="16" height="16"></rect>
                <path d="M6.5,6.5 L6.5,2 C6.5,1.17157288 7.17157288,0.5 8,0.5 C8.82842712,0.5 9.5,1.17157288 9.5,2 L9.5,6.5 L14,6.5 C14.8284271,6.5 15.5,7.17157288 15.5,8 C15.5,8.82842712 14.8284271,9.5 14,9.5 L9.5,9.5 L9.5,14 C9.5,14.8284271 8.82842712,15.5 8,15.5 C7.17157288,15.5 6.5,14.8284271 6.5,14 L6.5,9.5 L2,9.5 C1.17157288,9.5 0.5,8.82842712 0.5,8 C0.5,7.17157288 1.17157288,6.5 2,6.5 L6.5,6.5 Z" id="Path" fill="#000000"></path>
            </g>
        </g>
    </g>
</svg>