<?xml version="1.0" encoding="UTF-8"?>
<svg width="48px" height="48px" viewBox="0 0 48 48" version="1.1" xmlns="http://www.w3.org/2000/svg" xmlns:xlink="http://www.w3.org/1999/xlink">
    <title>DB1B84EF-8965-4272-BF88-6D6A3BDB35C4</title>
    <g id="Page-1" stroke="none" stroke-width="1" fill="none" fill-rule="evenodd">
        <g id="Icon-Sheet" transform="translate(-24.000000, -189.000000)">
            <g id="Icon-Error" transform="translate(24.000000, 189.000000)">
                <rect id="Placeholder" x="0" y="0" width="48" height="48"></rect>
                <path d="M22.1225166,37.8540541 L22.3836749,37.8595074 C23.4092637,37.9031345 24.2063169,38.2085239 24.7748344,38.7756757 C25.3907285,39.3900901 25.6986755,40.2720721 25.6986755,41.4216216 L25.6986755,41.4216216 L25.6986755,42.4324324 L25.693209,42.6929634 C25.6494769,43.7160883 25.343352,44.5112266 24.7748344,45.0783784 C24.1589404,45.6927928 23.2748344,46 22.1225166,46 L22.1225166,46 L21.3476821,46 L21.0865238,45.9945466 C20.060935,45.9509196 19.2638818,45.6455301 18.6953642,45.0783784 C18.0794702,44.463964 17.7715232,43.581982 17.7715232,42.4324324 L17.7715232,42.4324324 L17.7715232,41.4216216 L17.7769897,41.1610907 C17.8207218,40.1379658 18.1268467,39.3428274 18.6953642,38.7756757 C19.3112583,38.1612613 20.1953642,37.8540541 21.3476821,37.8540541 L21.3476821,37.8540541 L22.1225166,37.8540541 Z M22.8377483,2 C25.5397351,2 28.0033113,2.61441441 30.2284768,3.84324324 C32.4536424,5.07207207 34.2218543,6.76666667 35.5331126,8.92702703 C36.8443709,11.0873874 37.5,13.4558559 37.5,16.0324324 C37.5,19.8378378 36.4072848,22.8504505 34.2218543,25.0702703 C32.0364238,27.2900901 29.1357616,28.6774775 25.5198675,29.2324324 C25.3211921,29.3117117 25.2218543,29.4108108 25.2218543,29.5297297 L25.2218543,29.5297297 L25.2218543,31.7297297 L25.2158588,31.964577 C25.1678945,32.8920038 24.8321447,33.6758836 24.2086093,34.3162162 C23.5331126,35.0099099 22.6788079,35.3567568 21.6456954,35.3567568 C20.6125828,35.3567568 19.7582781,35.0099099 19.0827815,34.3162162 C18.4072848,33.6225225 18.0695364,32.7603604 18.0695364,31.7297297 L18.0695364,31.7297297 L18.0695364,27.2108108 L18.075532,26.9759635 C18.1234962,26.0485367 18.4592461,25.264657 19.0827815,24.6243243 C19.7582781,23.9306306 20.6125828,23.5837838 21.6456954,23.5837838 C24.2682119,23.5837838 26.3741722,22.9693694 27.9635762,21.7405405 C29.5529801,20.5117117 30.3476821,18.609009 30.3476821,16.0324324 C30.3476821,14.0504505 29.6324503,12.4054054 28.2019868,11.0972973 C26.7715232,9.78918919 24.9834437,9.13513514 22.8377483,9.13513514 C20.6523179,9.13513514 18.7251656,9.86846847 17.0562914,11.3351351 C16.102649,12.2072072 15.1092715,12.6432432 14.0761589,12.6432432 C13.3211921,12.6432432 12.6456954,12.4054054 12.0496689,11.9297297 C11.0165563,11.1369369 10.5,10.2054054 10.5,9.13513514 C10.5,8.22342342 10.8774834,7.39099099 11.6324503,6.63783784 C13.0629139,5.17117117 14.7417219,4.03153153 16.6688742,3.21891892 C18.5960265,2.40630631 20.6523179,2 22.8377483,2 Z" id="Shape" fill="#000000" fill-rule="nonzero"></path>
            </g>
        </g>
    </g>
</svg>