<?xml version="1.0" encoding="UTF-8"?>
<svg width="48px" height="48px" viewBox="0 0 48 48" version="1.1" xmlns="http://www.w3.org/2000/svg" xmlns:xlink="http://www.w3.org/1999/xlink">
    <title>37F21D75-5D94-4953-A15B-DCFE555E2541</title>
    <g id="Page-1" stroke="none" stroke-width="1" fill="none" fill-rule="evenodd">
        <g id="Icon-Sheet" transform="translate(-112.000000, -189.000000)">
            <g id="Icon-Alert" transform="translate(112.000000, 189.000000)">
                <rect id="Placeholder" x="0" y="0" width="48" height="48"></rect>
                <path d="M24.3909774,37.3885714 L24.6545357,37.3943364 C25.6895493,37.4404565 26.4939271,37.7632967 27.0676692,38.3628571 C27.6892231,39.012381 28,39.9447619 28,41.16 L28,41.16 L28,42.2285714 L27.9944832,42.5039899 C27.9503492,43.585579 27.6414112,44.4261538 27.0676692,45.0257143 C26.4461153,45.6752381 25.5538847,46 24.3909774,46 L24.3909774,46 L23.6090226,46 L23.3454643,45.994235 C22.3104507,45.948115 21.5060729,45.6252747 20.9323308,45.0257143 C20.3107769,44.3761905 20,43.4438095 20,42.2285714 L20,42.2285714 L20,41.16 L20.0055168,40.8845816 C20.0496508,39.8029924 20.3585888,38.9624176 20.9323308,38.3628571 C21.5538847,37.7133333 22.4461153,37.3885714 23.6090226,37.3885714 L23.6090226,37.3885714 L24.3909774,37.3885714 Z M23.9699248,2 C25.1729323,2 26.1553885,2.44 26.9172932,3.32 C27.679198,4.2 28,5.28952381 27.8796992,6.58857143 L27.8796992,6.58857143 L26.1954887,29.72 L26.1763861,29.9231866 C26.0112853,31.3801098 25.2958483,32.1085714 24.0300752,32.1085714 C22.6666667,32.1085714 21.924812,31.312381 21.8045113,29.72 L21.8045113,29.72 L20.0601504,6.58857143 L20.0492558,6.31341108 C20.029308,5.13494655 20.3637666,4.13714286 21.0526316,3.32 C21.7944862,2.44 22.7669173,2 23.9699248,2 Z" id="Shape" fill="#000000" fill-rule="nonzero"></path>
            </g>
        </g>
    </g>
</svg>