<?xml version="1.0" encoding="UTF-8"?>
<svg width="16px" height="16px" viewBox="0 0 16 16" version="1.1" xmlns="http://www.w3.org/2000/svg" xmlns:xlink="http://www.w3.org/1999/xlink">
    <g id="iTools" stroke="none" stroke-width="1" fill="none" fill-rule="evenodd">
        <g id="Icon-Sheet" transform="translate(-640.000000, -93.000000)">
            <g id="Icon-Show" transform="translate(640.000000, 93.000000)">
                <rect id="Placeholder" x="0" y="0" width="16" height="16"></rect>
                <path d="M8,2.5 C4.36363636,2.5 1.25818182,4.78066667 0,8 C1.25818182,11.2193333 4.36363636,13.5 8,13.5 C11.6363636,13.5 14.7418182,11.2193333 16,8 C14.7418182,4.78066667 11.6363636,2.5 8,2.5 Z M8,11.6666667 C5.99272727,11.6666667 4.36363636,10.024 4.36363636,8 C4.36363636,5.976 5.99272727,4.33333333 8,4.33333333 C10.0072727,4.33333333 11.6363636,5.976 11.6363636,8 C11.6363636,10.024 10.0072727,11.6666667 8,11.6666667 Z M8,5.8 C6.79272727,5.8 5.81818182,6.78266667 5.81818182,8 C5.81818182,9.21733333 6.79272727,10.2 8,10.2 C9.20727273,10.2 10.1818182,9.21733333 10.1818182,8 C10.1818182,6.78266667 9.20727273,5.8 8,5.8 Z" id="Shape" fill="#000000"></path>
            </g>
        </g>
    </g>
</svg>