<?xml version="1.0" encoding="UTF-8"?>
<svg width="16px" height="16px" viewBox="0 0 16 16" version="1.1" xmlns="http://www.w3.org/2000/svg" xmlns:xlink="http://www.w3.org/1999/xlink">
    <g id="iTools" stroke="none" stroke-width="1" fill="none" fill-rule="evenodd">
        <g id="Icon-Sheet" transform="translate(-584.000000, -93.000000)">
            <g id="Icon-Hide" transform="translate(584.000000, 93.000000)">
                <rect id="Placeholder" x="0" y="0" width="16" height="16"></rect>
                <path d="M8.00363802,3.94736842 C10.0118236,3.94736842 11.6416553,5.59789474 11.6416553,7.63157895 C11.6416553,8.11052632 11.5470668,8.56 11.3797181,8.98 L13.5043201,11.1315789 C14.6030014,10.2031579 15.4688495,9.00210526 16,7.63157895 C14.741246,4.39684211 11.6343793,2.10526316 7.99636198,2.10526316 C6.97771714,2.10526316 6.00272851,2.28947368 5.10050023,2.62105263 L6.67212369,4.21263158 C7.08685766,4.04315789 7.53069577,3.94736842 8.00363802,3.94736842 Z M0.727603456,1.93578947 L2.38653934,3.61578947 L2.72123693,3.95473684 C1.51341519,4.90526316 0.567530696,6.17263158 0,7.63157895 C1.25875398,10.8663158 4.36562074,13.1578947 8.00363802,13.1578947 C9.13142337,13.1578947 10.2082765,12.9368421 11.1905412,12.5389474 L11.4961346,12.8484211 L13.6280127,15 L14.5520691,14.0642105 L1.65165985,1 L0.727603456,1.93578947 Z M4.75125057,6.01052632 L5.87903593,7.15263158 C5.84265575,7.30736842 5.82082765,7.46947368 5.82082765,7.63157895 C5.82082765,8.85473684 6.79581628,9.84210526 8.00363802,9.84210526 C8.16371078,9.84210526 8.32378354,9.82 8.47658026,9.78315789 L9.60436562,10.9252632 C9.11687131,11.1684211 8.57844475,11.3157895 8.00363802,11.3157895 C5.99545248,11.3157895 4.36562074,9.66526316 4.36562074,7.63157895 C4.36562074,7.04947368 4.51114143,6.50421053 4.75125057,6.01052632 L4.75125057,6.01052632 Z M7.88722146,5.43578947 L10.1791724,7.75684211 L10.1937244,7.63894737 C10.1937244,6.41578947 9.21873579,5.42842105 8.01091405,5.42842105 L7.88722146,5.43578947 Z" id="Shape" fill="#000000" transform="translate(8.000000, 8.000000) rotate(-180.000000) translate(-8.000000, -8.000000) "></path>
            </g>
        </g>
    </g>
</svg>