<?xml version="1.0" encoding="UTF-8"?>
<svg width="16px" height="16px" viewBox="0 0 16 16" version="1.1" xmlns="http://www.w3.org/2000/svg" xmlns:xlink="http://www.w3.org/1999/xlink">
    <g id="iTools" stroke="none" stroke-width="1" fill="none" fill-rule="evenodd">
        <g id="Icon-Sheet" transform="translate(-808.000000, -93.000000)">
            <g id="Icon-Equal" transform="translate(808.000000, 93.000000)">
                <rect id="Placeholder" x="0" y="0" width="16" height="16"></rect>
                <path d="M14,9.5 C14.8284271,9.5 15.5,10.1715729 15.5,11 C15.5,11.8284271 14.8284271,12.5 14,12.5 L2,12.5 C1.17157288,12.5 0.5,11.8284271 0.5,11 C0.5,10.1715729 1.17157288,9.5 2,9.5 L14,9.5 Z M14,3.5 C14.8284271,3.5 15.5,4.17157288 15.5,5 C15.5,5.82842712 14.8284271,6.5 14,6.5 L2,6.5 C1.17157288,6.5 0.5,5.82842712 0.5,5 C0.5,4.17157288 1.17157288,3.5 2,3.5 L14,3.5 Z" id="Shape" fill="#000000"></path>
            </g>
        </g>
    </g>
</svg>