<?xml version="1.0" encoding="UTF-8"?>
<svg width="16px" height="16px" viewBox="0 0 16 16" version="1.1" xmlns="http://www.w3.org/2000/svg" xmlns:xlink="http://www.w3.org/1999/xlink">
    <title>8BF1FA64-52E2-4063-AFC1-3F2DFB3A1F21</title>
    <g id="iTools" stroke="none" stroke-width="1" fill="none" fill-rule="evenodd">
        <g id="Icon-Sheet" transform="translate(-80.000000, -93.000000)">
            <g id="Icon-Clear" transform="translate(80.000000, 93.000000)">
                <rect id="Placeholder" x="0" y="0" width="16" height="16"></rect>
                <path d="M3,13.9999999 C3.55228,13.9999999 4,14.4476999 4,14.9999999 C4,15.5523 3.55228,15.9999999 3,15.9999999 C2.44772,15.9999999 2,15.5523 2,14.9999999 C2,14.4476999 2.44772,13.9999999 3,13.9999999 Z M9,13.9999999 C9.55229,13.9999999 10,14.4476999 10,14.9999999 C10,15.5523 9.55229,15.9999999 9,15.9999999 C8.44771,15.9999999 8,15.5523 8,14.9999999 C8,14.4476999 8.44771,13.9999999 9,13.9999999 Z M15,13.9999999 C15.5523,13.9999999 16,14.4476999 16,14.9999999 C16,15.5523 15.5523,15.9999999 15,15.9999999 C14.4477,15.9999999 14,15.5523 14,14.9999999 C14,14.4476999 14.4477,13.9999999 15,13.9999999 Z M6,12.9999999 C6.55228,12.9999999 7,13.4476999 7,13.9999999 C7,14.5523 6.55228,14.9999999 6,14.9999999 C5.44772,14.9999999 5,14.5523 5,13.9999999 C5,13.4476999 5.44772,12.9999999 6,12.9999999 Z M12,11.9999999 C12.5523,11.9999999 13,12.4476999 13,12.9999999 C13,13.5523 12.5523,13.9999999 12,13.9999999 C11.4477,13.9999999 11,13.5523 11,12.9999999 C11,12.4476999 11.4477,11.9999999 12,11.9999999 Z M1,10.9999999 C1.55228,10.9999999 2,11.4476999 2,11.9999999 C2,12.5523 1.55228,12.9999999 1,12.9999999 C0.447715,12.9999999 0,12.5523 0,11.9999999 C0,11.4476999 0.447715,10.9999999 1,10.9999999 Z M0.285992,0.28599195 C0.667314,-0.09533065 1.28556,-0.09533065 1.66688,0.28599195 L1.66688,0.28599195 L5.29183,3.91093995 C5.62549,4.24459995 6.14467,4.27534995 6.57948,4.09204995 C8.14785,3.43085995 9.6687,4.14512995 10.9879,5.46432995 L10.9879,5.46432995 L12.714,7.19044995 C13.0953,7.57176995 13.0953,8.19000995 12.714,8.57133995 C12.3327,8.95265995 11.7144,8.95265995 11.3331,8.57133995 L11.3331,8.57133995 L9.95223,7.19044995 C9.76157,6.99977995 9.45244,6.99977995 9.26178,7.19044995 C9.07112,7.38110995 9.07112,7.69022995 9.26178,7.88088995 L9.26178,7.88088995 L10.6427,9.26177995 C11.024,9.64309995 11.024,10.2613 10.6427,10.6427 C10.2613,11.024 9.6431,11.024 9.26178,10.6427 L9.26178,10.6427 L7.88089,9.26177995 C7.69023,9.07111995 7.38111,9.07111995 7.19045,9.26177995 C6.99978,9.45243995 6.99978,9.76156995 7.19045,9.95222995 L7.19045,9.95222995 L8.57134,11.3331 C8.95266,11.7144 8.95266,12.3327 8.57134,12.714 C8.19001,13.0953 7.57177,13.0953 7.19045,12.714 L7.19045,12.714 L5.46433,10.9879 C4.14513,9.66868995 3.43086,8.14784995 4.09205,6.57947995 C4.27535,6.14466995 4.2446,5.62548995 3.91094,5.29182995 L3.91094,5.29182995 L0.285992,1.66687995 C-0.0953306,1.28555995 -0.0953306,0.66731395 0.285992,0.28599195 Z M15,8.99999995 C15.5523,8.99999995 16,9.44770995 16,9.99999995 C16,10.5523 15.5523,11 15,11 C14.4477,11 14,10.5523 14,9.99999995 C14,9.44770995 14.4477,8.99999995 15,8.99999995 Z" id="Shape" fill="#000000"></path>
            </g>
        </g>
    </g>
</svg>